<svg width="32" height="32" viewBox="0 0 32 32" fill="none" xmlns="http://www.w3.org/2000/svg">
<path fill-rule="evenodd" clip-rule="evenodd" d="M25.0419 10.922C25.3228 11.2032 25.4806 11.5845 25.4806 11.982C25.4806 12.3795 25.3228 12.7607 25.0419 13.042L17.0419 21.042C16.7607 21.3229 16.3794 21.4806 15.9819 21.4806C15.5844 21.4806 15.2032 21.3229 14.9219 21.042L6.92194 13.042C6.65698 12.7576 6.51273 12.3815 6.51959 11.9929C6.52645 11.6043 6.68387 11.2335 6.9587 10.9587C7.23352 10.6839 7.60429 10.5265 7.9929 10.5196C8.3815 10.5127 8.75759 10.657 9.04194 10.922L15.9819 17.862L22.9219 10.922C23.2032 10.6411 23.5844 10.4833 23.9819 10.4833C24.3794 10.4833 24.7607 10.6411 25.0419 10.922Z" fill="currentColor"/>
</svg>
