<svg width="32" height="32" viewBox="0 0 32 32" fill="none" xmlns="http://www.w3.org/2000/svg">
<path fill-rule="evenodd" clip-rule="evenodd" d="M10.94 6.94002C11.2213 6.65912 11.6025 6.50134 12 6.50134C12.3975 6.50134 12.7787 6.65912 13.06 6.94002L21.06 14.94C21.3409 15.2213 21.4987 15.6025 21.4987 16C21.4987 16.3975 21.3409 16.7788 21.06 17.06L13.06 25.06C12.7757 25.325 12.3996 25.4692 12.011 25.4624C11.6224 25.4555 11.2516 25.2981 10.9768 25.0233C10.7019 24.7484 10.5445 24.3777 10.5377 23.9891C10.5308 23.6005 10.675 23.2244 10.94 22.94L17.88 16L10.94 9.06002C10.6591 8.77877 10.5013 8.39752 10.5013 8.00002C10.5013 7.60252 10.6591 7.22127 10.94 6.94002Z" fill="currentColor"/>
</svg>
