<svg width="32" height="32" viewBox="0 0 32 32" fill="none" xmlns="http://www.w3.org/2000/svg">
<path fill-rule="evenodd" clip-rule="evenodd" d="M21.06 25.0239C20.7787 25.3048 20.3975 25.4626 20 25.4626C19.6025 25.4626 19.2212 25.3048 18.94 25.0239L10.94 17.0239C10.6591 16.7427 10.5013 16.3614 10.5013 15.9639C10.5013 15.5664 10.6591 15.1852 10.94 14.9039L18.94 6.90391C19.2243 6.63895 19.6004 6.4947 19.989 6.50155C20.3776 6.50841 20.7484 6.66584 21.0232 6.94066C21.2981 7.21549 21.4555 7.58626 21.4623 7.97486C21.4692 8.36346 21.325 8.73955 21.06 9.0239L14.12 15.9639L21.06 22.9039C21.3409 23.1852 21.4987 23.5664 21.4987 23.9639C21.4987 24.3614 21.3409 24.7427 21.06 25.0239Z" fill="currentColor"/>
</svg>
