<svg width="32" height="32" viewBox="0 0 32 32" fill="none" xmlns="http://www.w3.org/2000/svg">
<path fill-rule="evenodd" clip-rule="evenodd" d="M6.95804 21.042C6.67714 20.7607 6.51936 20.3795 6.51936 19.982C6.51936 19.5845 6.67714 19.2032 6.95804 18.922L14.958 10.922C15.2393 10.6411 15.6205 10.4833 16.018 10.4833C16.4155 10.4833 16.7968 10.6411 17.078 10.922L25.078 18.922C25.343 19.2063 25.4873 19.5824 25.4804 19.971C25.4735 20.3596 25.3161 20.7304 25.0413 21.0052C24.7665 21.28 24.3957 21.4375 24.0071 21.4443C23.6185 21.4512 23.2424 21.3069 22.958 21.042L16.018 14.102L9.07804 21.042C8.79679 21.3229 8.41554 21.4807 8.01804 21.4807C7.62054 21.4807 7.23929 21.3229 6.95804 21.042Z" fill="currentColor"/>
</svg>
