<svg width="32" height="32" viewBox="0 0 32 32" fill="none" xmlns="http://www.w3.org/2000/svg">
    <path
        d="M6.22233 25.7777H7.83333L22.6667 10.9667L21.0557 9.35567L6.22233 24.1667V25.7777ZM4 28V23.2667L22.6443 4.65567C22.8519 4.45567 23.0908 4.30012 23.361 4.18901C23.6314 4.07789 23.9148 4.02234 24.211 4.02234C24.4926 4.02234 24.7703 4.07789 25.0443 4.18901C25.3186 4.30012 25.563 4.45934 25.7777 4.66667L27.3667 6.26667C27.5889 6.48156 27.75 6.72601 27.85 7.00001C27.95 7.27401 28 7.54812 28 7.82234C28 8.10367 27.9463 8.38323 27.839 8.66101C27.7314 8.93878 27.574 9.18145 27.3667 9.38901L8.73333 28H4ZM21.8557 10.1667L21.0557 9.35567L22.6667 10.9667L21.8557 10.1667Z"
        fill="currentColor"
    />
</svg>
