<svg width="32" height="32" viewBox="0 0 32 32" fill="none" xmlns="http://www.w3.org/2000/svg">
<path d="M19.834 8H8C8 8.30391 8.05996 8.61182 8.25781 8.8418C10.9738 11.6958 14.94 14.3904 15 16.8164V21L17 19.5V16.8164C17.0563 14.5492 19.9683 12.3985 22.4893 10.0654V13.1533C21.4087 14.127 20.2449 15.1211 19.2578 16.1582C19.09 16.3541 19.006 16.582 19 16.8398V20.5L13 25C13 22.2601 13.066 19.5182 12.998 16.7783C12.9801 16.5444 12.8961 16.3362 12.7422 16.1582C10.0262 13.3042 6.06 10.6096 6 8.18359V6H19.834V8Z" fill="currentColor"/>
<path d="M26 6H28.9463V8.00195H26V11.3145H23.998V8.00195H21.0518V6H23.998V3.03906H26V6Z" fill="currentColor"/>
</svg>
