<svg width="16" height="16" viewBox="0 0 16 16" fill="none" xmlns="http://www.w3.org/2000/svg">
<path fill-rule="evenodd" clip-rule="evenodd" d="M3.05568 7.55549L4.69192 9.19104L5.4098 8.49026L4.17168 7.25049C4.57668 6.62549 5.75568 6.69049 6.74968 6.94349L9.24268 4.44949L8.99768 4.08849C8.80168 3.77749 9.16568 3.33649 9.50968 3.05249L9.51831 3.04576C9.52353 3.04161 9.5289 3.03735 9.53468 3.03349L10.2583 3.75716L10.974 3.05849L9.67368 1.75749C9.67368 1.75749 7.64768 3.10949 7.99768 4.28049L6.41868 5.83449C5.41668 5.64049 4.07368 5.69049 3.39068 6.62049C3.07168 7.05549 3.05568 7.55549 3.05568 7.55549ZM3.34636 13.3466L3.35335 13.3535L6.10404 10.6029L8.49568 12.9945L8.86868 12.8125C9.86468 12.3045 10.2567 11.2075 10.1847 10.1425C10.1574 9.74024 10.1507 9.70713 10.1407 9.6572C10.1367 9.63749 10.1322 9.61516 10.1257 9.56649L11.7857 7.95749C12.6527 8.10349 13.3847 7.50149 13.9217 6.78849C14.0337 6.63949 14.1457 6.49049 14.2567 6.34149L14.2561 6.34095L12.3111 4.39579L13.1033 3.60355L12.3962 2.89644L5.20578 10.0869L4.5871 10.6909L1.74268 13.5345L2.45068 14.2425L3.34636 13.3466ZM11.604 5.10285L12.9297 6.42849C12.1967 7.28549 11.4617 6.81649 11.4617 6.81649L9.06668 9.21149C9.08053 9.30836 9.09544 9.40577 9.11036 9.50316L9.11037 9.50321L9.11037 9.50326L9.11038 9.5033C9.23865 10.341 9.3668 11.1778 8.81768 11.6615C8.77368 11.6985 8.72868 11.7335 8.68168 11.7665L6.81228 9.89461L11.604 5.10285Z" fill="currentColor"/>
</svg>
